{"title":"Stone 2010 BRRip Xvid AC3 LKRG","uid":6075081,"size":1275226407,"categoryP":"video","categoryS":"movies","magnet":"?xt=urn:btih:63bccd26f7e6e0c0eeffa45d30ad86c00ded0ea3&amp;dn=Stone+2010+BRRip+Xvid+AC3+LKRG&amp;tr=udp%3A%2F%2Ftracker.openbittorrent.com%3A80&amp;tr=udp%3A%2F%2Fopen.demonii.com%3A1337&amp;tr=udp%3A%2F%2Ftracker.coppersurfer.tk%3A6969&amp;tr=udp%3A%2F%2Fexodus.desync.com%3A6969","seeders":1,"leechers":0,"uploader":"hiest","files":-1,"time":1293793780,"description":"Video\nID : 0\nFormat : MPEG-4 Visual\nFormat profile : Advanced Simple@L5\nFormat settings, BVOP : Yes\nFormat settings, QPel : No\nFormat settings, GMC : No warppoints\nFormat settings, Matrix : Default (H.263)\nCodec ID : XVID\nCodec ID/Hint : XviD\nDuration : 1h 42mn\nBit rate : 1 300 Kbps\nWidth : 720 pixels\nHeight : 304 pixels\nDisplay aspect ratio : 2.35:1\nFrame rate : 23.976 fps\nColor space : YUV\nChroma subsampling : 4:2:0\nBit depth : 8 bits\nScan type : Progressive\nBits/(Pixel*Frame) : 0.248\nStream size : 957 MiB (77%)\nWriting library : XviD 1.2.1 (UTC 2008-12-04)\n\nAudio\nID : 1\nFormat : AC-3\nFormat/Info : Audio Coding 3\nMode extension : CM (complete main)\nCodec ID : 2000\nDuration : 1h 42mn\nBit rate mode : Constant\nBit rate : 384 Kbps\nChannel(s) : 6 channels\nChannel positions : Front: L C R, Side: L R, LFE\nSampling rate : 48.0 KHz\nBit depth : 16 bits\nStream size : 283 MiB (23%)\nAlignment : Aligned on interleaves\nInterleave, duration : 32 ms (0.77 video frame)\n\n\n\n\n\n\nA convicted arsonist looks to manipulate a parole officer into a plan to secure his parole by placing his beautiful wife in the lawman's path. \n &lt;a href=&quot;\nhttp://www.imdb.com/title/tt1423995&quot; rel=&quot;nofollow&quot; target=&quot;_NEW&quot;&gt;\nhttp://www.imdb.com/title/tt1423995&lt;/a&gt;\n\n\n\n\n\n\n\n================================== &lt;a href=&quot;\nhttp://thepiratebay.se/user/hiest&quot; rel=&quot;nofollow&quot; target=&quot;_NEW&quot;&gt;\nhttp://thepiratebay.se/user/hiest&lt;/a&gt;\n==================================\n\n\n\n\n\n\n\nScreenshots:\n &lt;a href=&quot;\nhttp://www.grinshare.com/img/OMTLY9.png&quot; rel=&quot;nofollow&quot; target=&quot;_NEW&quot;&gt;\nhttp://www.grinshare.com/img/OMTLY9.png&lt;/a&gt;\n &lt;a href=&quot;\nhttp://www.grinshare.com/img/4LVGP8.png&quot; rel=&quot;nofollow&quot; target=&quot;_NEW&quot;&gt;\nhttp://www.grinshare.com/img/4LVGP8.png&lt;/a&gt;\n &lt;a href=&quot;\nhttp://www.grinshare.com/img/N3W75C.png&quot; rel=&quot;nofollow&quot; target=&quot;_NEW&quot;&gt;\nhttp://www.grinshare.com/img/N3W75C.png&lt;/a&gt;\n\n","torrent":{"xt":"urn:btih:63bccd26f7e6e0c0eeffa45d30ad86c00ded0ea3","amp;dn":"Stone+2010+BRRip+Xvid+AC3+LKRG","amp;tr":["udp%3A%2F%2Ftracker.openbittorrent.com%3A80","udp%3A%2F%2Fopen.demonii.com%3A1337","udp%3A%2F%2Ftracker.coppersurfer.tk%3A6969","udp%3A%2F%2Fexodus.desync.com%3A6969"],"infoHash":"63bccd26f7e6e0c0eeffa45d30ad86c00ded0ea3","infoHashBuffer":{"type":"Buffer","data":[99,188,205,38,247,230,224,192,238,255,164,93,48,173,134,192,13,237,14,163]},"announce":[],"urlList":[]}}